{"title":"Ultimate Spiderman S01E19 Home Sick 720p WEB-DL 80 mb CowBoy ","uid":7623340,"size":91807159,"categoryP":"video","categoryS":"hd___tv_shows","magnet":"?xt=urn:btih:fb3e294d06312352d90b91b7d1a5df35170fcc51&amp;dn=Ultimate+Spiderman+S01E19+Home+Sick+720p+WEB-DL+80+mb+CowBoy+&amp;tr=udp%3A%2F%2Ftracker.openbittorrent.com%3A80&amp;tr=udp%3A%2F%2Fopen.demonii.com%3A1337&amp;tr=udp%3A%2F%2Ftracker.coppersurfer.tk%3A6969&amp;tr=udp%3A%2F%2Fexodus.desync.com%3A6969","seeders":0,"leechers":0,"uploader":"CoWBoYWWE","files":1,"time":1347380467,"description":"Ultimate Spiderman S01E19 Home Sick 720p WEB-DL 80 mb CowBoy in mkv format\n\nDETAILS\n\nFormat                                   : Matroska\nFormat version                           : Version 2\nFile size                                : 87.6 MiB\nDuration                                 : 22mn 9s\nOverall bit rate mode                    : Variable\n\nVideo\nID                                       : 1\nFormat                                   : AVC\nFormat/Info                              : Advanced Video Codec\nFormat profile                           : &lt;a class=&quot;__cf_email__&quot; href=&quot;/cdn-cgi/l/email-protection&quot; data-cfemail=&quot;4f072628270f037b617f&quot;&gt;[email&amp;#160;protected]&lt;/a&gt;&lt;script cf-hash='f9e31' type=&quot;text/javascript&quot;&gt;\n/* &lt;![CDATA[ */!function(){try{var t=&quot;currentScript&quot;in document?document.currentScript:function(){for(var t=document.getElementsByTagName(&quot;script&quot;),e=t.length;e--;)if(t[e].getAttribute(&quot;cf-hash&quot;))return t[e]}();if(t&amp;&amp;t.previousSibling){var e,r,n,i,c=t.previousSibling,a=c.getAttribute(&quot;data-cfemail&quot;);if(a){for(e=&quot;&quot;,r=parseInt(a.substr(0,2),16),n=2;a.length-n;n+=2)i=parseInt(a.substr(n,2),16)^r,e+=String.fromCharCode(i);e=document.createTextNode(e),c.parentNode.replaceChild(e,c)}}}catch(u){}}();/* ]]&gt; */&lt;/script&gt;\nFormat settings, CABAC                   : Yes\nFormat settings, ReFrames                : 8 frames\nCodec ID                                 : V_MPEG4/ISO/AVC\nDuration                                 : 22mn 9s\nBit rate                                 : 500 Kbps\nWidth                                    : 1 280 pixels\nHeight                                   : 720 pixels\nDisplay aspect ratio                     : 16:9\nFrame rate mode                          : Variable\nFrame rate                               : 23.976 fps\nColor space                              : YUV\nChroma subsampling                       : 4:2:0\nBit depth                                : 8 bits\nScan type                                : Progressive\nBits/(Pixel*Frame)                       : 0.023\nStream size                              : 78.2 MiB (89%)\nWriting library                          : x264 core 115\n\n\nAudio\nID                                       : 2\nFormat                                   : Vorbis\nFormat settings, Floor                   : 1\nCodec ID                                 : A_VORBIS\nDuration                                 : 22mn 9s\nBit rate mode                            : Variable\nBit rate                                 : 48.0 Kbps\nChannel(s)                               : 2 channels\nSampling rate                            : 48.0 KHz\nCompression mode                         : Lossy\nStream size                              : 7.61 MiB (9%)\nWriting library                          : aoTuV Beta 5 (UTC 2006-10-24)\nLanguage                                 : English\n\n\n","torrent":{"xt":"urn:btih:fb3e294d06312352d90b91b7d1a5df35170fcc51","amp;dn":"Ultimate+Spiderman+S01E19+Home+Sick+720p+WEB-DL+80+mb+CowBoy+","amp;tr":["udp%3A%2F%2Ftracker.openbittorrent.com%3A80","udp%3A%2F%2Fopen.demonii.com%3A1337","udp%3A%2F%2Ftracker.coppersurfer.tk%3A6969","udp%3A%2F%2Fexodus.desync.com%3A6969"],"infoHash":"fb3e294d06312352d90b91b7d1a5df35170fcc51","infoHashBuffer":{"type":"Buffer","data":[251,62,41,77,6,49,35,82,217,11,145,183,209,165,223,53,23,15,204,81]},"announce":[],"urlList":[]}}